<svg xmlns:xlink="http://www.w3.org/1999/xlink" xmlns="http://www.w3.org/2000/svg" id="ac938c8a-945f-4f40-b2ec-77cf73b081e7" data-name="Layer 1" viewBox="0 0 234.38 35.23" width="234.38" height="35.23"><defs></defs><title>bismillah</title><polygon class="f37e0fce-170d-4b84-8dce-14776dc7096e" points="52.91 26.15 54.53 24.57 52.85 22.85 51.33 24.47 52.91 26.15" fill="#7D674C"></polygon><path class="f37e0fce-170d-4b84-8dce-14776dc7096e" d="M55.9,19.14c0-.38-.54-3-1.62-7.78A77.08,77.08,0,0,0,52.4,3.71a4.09,4.09,0,0,0-.66,2.64l3.55,16.19A11.34,11.34,0,0,0,55.9,19.14Z" fill="#7D674C"></path><path class="f37e0fce-170d-4b84-8dce-14776dc7096e" d="M48.79,20.25a3.18,3.18,0,0,1-1.72-.51,10.89,10.89,0,0,0-.51,2l.77.77a2.2,2.2,0,0,1,.76,1.52c0,.89-.67,2-2,3.3a8.33,8.33,0,0,1-3.62,2.35,12.85,12.85,0,0,1-3.36.44l-.19.26a13.88,13.88,0,0,0,4.31.66,4.7,4.7,0,0,0,4.16-2.63,9.53,9.53,0,0,0,1.37-4.89,10.77,10.77,0,0,1,1.27-2,6.66,6.66,0,0,0,1.27-3.87,32.21,32.21,0,0,0-1-5.33c-.63-2.83-1-4.22-1-4.16a3.12,3.12,0,0,1,.25-.86A7.63,7.63,0,0,0,50,6.54c-1-1.3-1.68-2.25-2.19-2.83a4.94,4.94,0,0,0-.7,2.07,11.41,11.41,0,0,0,1,2.69c.1.23.48,1.62,1.08,4.23a64.31,64.31,0,0,1,1.27,6.6A1.56,1.56,0,0,1,48.79,20.25Z" fill="#7D674C"></path><path class="f37e0fce-170d-4b84-8dce-14776dc7096e" d="M19.24,5.68a11.72,11.72,0,0,1-4.16,3l.35.1c3.84-1,5.84-2.7,6-5a4.26,4.26,0,0,0-3-1,3.28,3.28,0,0,0-2,.47A6.92,6.92,0,0,0,15,5.68a5.21,5.21,0,0,1,2.73-.76C18.73,4.92,19.24,5.17,19.24,5.68Z" fill="#7D674C"></path><path class="f37e0fce-170d-4b84-8dce-14776dc7096e" d="M57.74,8.57c.92,0,1.36-.6,1.36-1.78a2.74,2.74,0,0,0-.41-1.46l-.1.26c.16.79,0,1.2-.5,1.2s-.61-.28-.61-.85c0-.07.32-1.18,1-3.31h-.2c-.44.67-.88,1.4-1.3,2.16a4.68,4.68,0,0,0-.63,2.26C56.31,8.06,56.78,8.57,57.74,8.57Z" fill="#7D674C"></path><path class="f37e0fce-170d-4b84-8dce-14776dc7096e" d="M38.44,8.82a6.12,6.12,0,0,0,2.38-2.25,5.14,5.14,0,0,0,1-2.51A92.75,92.75,0,0,0,26.66,8C20.54,10.09,16,12.16,13.05,14.16c-.29.16-.58.79-.86,1.93Q23.62,9.24,40,5.84A6.24,6.24,0,0,1,38.44,8.82Z" fill="#7D674C"></path><path class="f37e0fce-170d-4b84-8dce-14776dc7096e" d="M38.88,25.65c0,.57.32.85,1,.85a3.6,3.6,0,0,0,1.9-.6,2.83,2.83,0,0,0,1.15-1,6.53,6.53,0,0,1-2.48.77c-.51,0-.76-.19-.76-.57,0-.2.38-.7,1.11-1.53a3.91,3.91,0,0,0,.67-.95,2.57,2.57,0,0,0-1.18-.41,1.62,1.62,0,0,0-1.62,1.11,5.26,5.26,0,0,1,1-.1,1.29,1.29,0,0,1,.76.26l-.76.66A2.3,2.3,0,0,0,38.88,25.65Z" fill="#7D674C"></path><path class="f37e0fce-170d-4b84-8dce-14776dc7096e" d="M75.1,9.9l-.25.19a2.91,2.91,0,0,0-.16,1c0,.89.38,1.33,1.11,1.33.28,0,.66-.31,1.17-1a1.24,1.24,0,0,0,1,.44c.85,0,1.27-.76,1.27-2.28a6.06,6.06,0,0,0-.16-1.37l-.35.35c-.13,1-.38,1.52-.86,1.52s-.66-.41-.66-1.2l-.42.51c0,.95-.28,1.46-.85,1.46S75.1,10.54,75.1,9.9Z" fill="#7D674C"></path><path class="f37e0fce-170d-4b84-8dce-14776dc7096e" d="M110.24,19.14c0-.38-.51-3-1.56-7.78S107,4,106.87,3.71a3.69,3.69,0,0,0-.76,2.64l3.62,16.19A13.41,13.41,0,0,0,110.24,19.14Z" fill="#7D674C"></path><path class="f37e0fce-170d-4b84-8dce-14776dc7096e" d="M62.59,19h.16a11.22,11.22,0,0,0,.35-3A6.8,6.8,0,0,0,61,11.27v2.19Q62.59,15.08,62.59,19Z" fill="#7D674C"></path><path class="f37e0fce-170d-4b84-8dce-14776dc7096e" d="M101.19,7.71a8.3,8.3,0,0,0,.41-3A6.79,6.79,0,0,0,99.51,0l-.1,2.19c1.15,1.08,1.68,2.92,1.68,5.52Z" fill="#7D674C"></path><path class="f37e0fce-170d-4b84-8dce-14776dc7096e" d="M221.58,10.6a11.53,11.53,0,0,1-4.12,3l.25.1c3.87-1,5.9-2.7,6.1-5a4.52,4.52,0,0,0-3-1,3.41,3.41,0,0,0-2,.47,7.32,7.32,0,0,0-1.43,2.42A5.57,5.57,0,0,1,220,9.84C221.08,9.84,221.58,10.09,221.58,10.6Z" fill="#7D674C"></path><path class="f37e0fce-170d-4b84-8dce-14776dc7096e" d="M111.7,13.05c.73,0,1.08-.29,1.08-.86a1.81,1.81,0,0,1,1.49,1.11,4,4,0,0,1,.63,1.78h.16c0-1,0-1.94.1-2.95,0-1.53.22-2.29.69-2.29s.51.25.42.82h.16a2.85,2.85,0,0,0,.6-1.52c0-.73-.35-1.08-1-1.08s-1.17.61-1.27,1.84v2.89A2.78,2.78,0,0,0,112,10.6c-.88,0-1.33.38-1.33,1.18S111,13.05,111.7,13.05Z" fill="#7D674C"></path><path class="f37e0fce-170d-4b84-8dce-14776dc7096e" d="M56.56,11.93a60.23,60.23,0,0,1,17.78-7A7.06,7.06,0,0,1,72.91,8a7.13,7.13,0,0,0,2.28-2.32,5.29,5.29,0,0,0,1-2.51A44.55,44.55,0,0,0,57.42,10,4.05,4.05,0,0,0,56.56,11.93Z" fill="#7D674C"></path><path class="f37e0fce-170d-4b84-8dce-14776dc7096e" d="M21.84,13.3c-.45.67-.86,1.36-1.27,2a5.17,5.17,0,0,0-.67,2.38c0,1,.48,1.52,1.43,1.52s1.36-.63,1.36-1.87A2.25,2.25,0,0,0,22.28,16l-.09.25c.16.79,0,1.21-.51,1.21s-.6-.29-.6-.86c0-.06.31-1.17,1-3.3Z" fill="#7D674C"></path><path class="f37e0fce-170d-4b84-8dce-14776dc7096e" d="M100.08,11.93c.22,0,.6-.31,1.11-1a1.44,1.44,0,0,0,1,.44c.88,0,1.36-.76,1.36-2.28a4.34,4.34,0,0,0-.25-1.46l-.35.44c-.13,1-.38,1.53-.76,1.53s-.77-.42-.77-1.21l-.41.51c0,.95-.25,1.46-.76,1.46s-.86-.32-.86-.95l-.35.19a3,3,0,0,0-.16,1C98.9,11.49,99.29,11.93,100.08,11.93Z" fill="#7D674C"></path><path class="f37e0fce-170d-4b84-8dce-14776dc7096e" d="M90.94,7.81c.92,0,1.36-.64,1.36-1.87a2.38,2.38,0,0,0-.51-1.46v.28c.16.83,0,1.27-.6,1.27-.32,0-.51-.28-.51-.86,0-.06.29-1.17.86-3.3l-.09-.09c-.45.66-.89,1.39-1.31,2.16a4.77,4.77,0,0,0-.63,2.25C89.51,7.27,90,7.81,90.94,7.81Z" fill="#7D674C"></path><path class="f37e0fce-170d-4b84-8dce-14776dc7096e" d="M41.33,10.86a2.61,2.61,0,0,0-.16,1c0,1,.38,1.43,1.17,1.43.29,0,.64-.35,1.11-1a1.67,1.67,0,0,0,1.08.35c.86,0,1.27-.76,1.27-2.22A5.1,5.1,0,0,0,45.64,9l-.41.35c-.13,1-.38,1.53-.76,1.53s-.76-.39-.76-1.12l-.45.42c0,1-.25,1.52-.76,1.52s-.82-.32-.82-1Z" fill="#7D674C"></path><path class="f37e0fce-170d-4b84-8dce-14776dc7096e" d="M85.1,3.71a3.69,3.69,0,0,0-.76,2.64L88,22.54a13.34,13.34,0,0,0,.5-3.4c0-.38-.54-3-1.58-7.78S85.26,4,85.1,3.71Z" fill="#7D674C"></path><path class="f37e0fce-170d-4b84-8dce-14776dc7096e" d="M90.53,32.19A59.15,59.15,0,0,1,97,28.28a2.68,2.68,0,0,0,1.62-2,62.06,62.06,0,0,0-6.76,4.06A4.43,4.43,0,0,0,90.53,32.19Z" fill="#7D674C"></path><path class="f37e0fce-170d-4b84-8dce-14776dc7096e" d="M95.51,11.68c1.14.29,1.81-.09,2-1.17.13-.51-.13-1-.76-1.65A2.43,2.43,0,0,0,95.19,8c-.76,0-1.11.16-1.11.5a.39.39,0,0,0,.16.35c.06.1,0,.35-.13.7a3.06,3.06,0,0,0-.19,1c0,.44.32.82,1,1.11a10.38,10.38,0,0,1-3.4,2.19A9.84,9.84,0,0,1,88.49,15l.16.19a10,10,0,0,0,4.13-1A5.37,5.37,0,0,0,95.51,11.68ZM96,9.59A1.47,1.47,0,0,1,97,10.66a3,3,0,0,1-1.17-.15C95.73,10.35,95.76,10,96,9.59Zm-1.52.5a1.7,1.7,0,0,1,.76-.85,7,7,0,0,1,0,1.17C94.78,10.25,94.52,10.13,94.43,10.09Z" fill="#7D674C"></path><path class="f37e0fce-170d-4b84-8dce-14776dc7096e" d="M109.73,32.44c2.82-1.81,5-3.11,6.54-3.9a2.64,2.64,0,0,0,1.62-1.94,52.43,52.43,0,0,0-6.8,4A7.05,7.05,0,0,0,109.73,32.44Z" fill="#7D674C"></path><path class="f37e0fce-170d-4b84-8dce-14776dc7096e" d="M103.73,12.38a4,4,0,0,0-.35,1.33,23.06,23.06,0,0,0,1,2.89,11.93,11.93,0,0,1,1,4c0,.51-.32.76-1,.76-1.05,0-1.88-1.08-2.45-3.3-.38-1.62-.79-3.27-1.17-4.89a5.88,5.88,0,0,0-.76,2.35,11.43,11.43,0,0,0,.38,2.41,12.58,12.58,0,0,1,.38,2.41c0,1.53-.8,2.29-2.38,2.29A2.15,2.15,0,0,1,96,20.16a10.23,10.23,0,0,1,.13-1.5c.06-.63.13-1.14.13-1.46A4.82,4.82,0,0,0,96,15.58l-.76,1.12A5.44,5.44,0,0,1,95,18a7.55,7.55,0,0,1-2.16,1.4c-1.43.82-2.16,1.74-2.16,2.76,0,1.43.58,2.12,1.72,2.12.95,0,1.9-.82,2.85-2.47A4.21,4.21,0,0,0,96,24.31a2.4,2.4,0,0,0,2.12,1.08c1.69,0,2.73-.92,3.15-2.79A2.69,2.69,0,0,0,104,24.31c1.69,0,2.54-1.36,2.54-4.06a23.12,23.12,0,0,0-2.44-9.14A4.38,4.38,0,0,1,103.73,12.38ZM95,20.06c-.06.73-.57,1.11-1.52,1.11a2.22,2.22,0,0,1-.57-.09L92.65,21c0-.19.26-.44.83-.82a2.89,2.89,0,0,1,1.27-.54H95Z" fill="#7D674C"></path><path class="f37e0fce-170d-4b84-8dce-14776dc7096e" d="M218.41,25.2c-.06.35-.22.54-.45.54a1.37,1.37,0,0,1-.57-.16,1,1,0,0,0-.38-.19,11.34,11.34,0,0,1-1.33.95,1.27,1.27,0,0,1-.64-.25,1.07,1.07,0,0,0-.63-.25c-1,0-2.51.73-4.67,2.19a23.72,23.72,0,0,1-6,3.14l.07.25a23.12,23.12,0,0,0,5.84-2.54c2.16-1.23,3.52-1.87,4.16-1.87a1.35,1.35,0,0,1,.66.29,1.2,1.2,0,0,0,.61.31c.28,0,.79-.31,1.52-.95a2.25,2.25,0,0,0,1.11.35c.73,0,1.27-.86,1.59-2.63C218.79,24.57,218.5,24.82,218.41,25.2Z" fill="#7D674C"></path><path class="f37e0fce-170d-4b84-8dce-14776dc7096e" d="M233.33,19l1-2.86c-1.37-4-5-9.52-5.69-9.64-.47,1.8-1.08,3,.29,4.63a41.36,41.36,0,0,1,3.87,4.67,6.15,6.15,0,0,1-3.55,1.77,7.45,7.45,0,0,0-.1-1.36,1.41,1.41,0,0,0-.54.16c-.54,2-.73,3-2,3a1.37,1.37,0,0,1-1-.41,7.62,7.62,0,0,0,.44-.95,4,4,0,0,1-.16-.57c-1.71,1.68-3.05,2.54-4,2.54a2.32,2.32,0,0,1-1.77-.7,8.14,8.14,0,0,0,.76-.92v-.51Q196.77,25,164.51,25,133.37,25,118,21.33a5.3,5.3,0,0,1-1.8-1.21c-.73-.66-1.24-1-1.59-1-1.24,0-1.87,1.4-1.87,4.16-.67,1.58-2.67,3.11-6,4.57v.32a8.3,8.3,0,0,0,4.15-1.27,5.5,5.5,0,0,0,2.61-2.86,5,5,0,0,1,1.39.57,4.67,4.67,0,0,0,1.5.6c.19,0,.38-.22.63-.63s.44-.64.57-.64q16.67,4,45,4.07A238.42,238.42,0,0,0,195,25.84a138.51,138.51,0,0,0,22.75-4.76,6.1,6.1,0,0,0,3.5,1.46,4.11,4.11,0,0,0,3-1.37,3.17,3.17,0,0,0,1.78.6A2.46,2.46,0,0,0,228,20.66c.22-.44.47-.89.76-1.36.44.47,1.27,1.24,2,.79A6.87,6.87,0,0,0,233.33,19ZM114.81,21.77a3.06,3.06,0,0,0-.76-.25c0-.51.15-.76.44-.76a5.66,5.66,0,0,0,.54.67l.57.6A8.17,8.17,0,0,1,114.81,21.77Z" fill="#7D674C"></path><polygon class="f37e0fce-170d-4b84-8dce-14776dc7096e" points="230.25 22.85 231.93 24.57 233.55 22.95 231.84 21.27 230.25 22.85" fill="#7D674C"></polygon><path class="f37e0fce-170d-4b84-8dce-14776dc7096e" d="M220.76,30.15c2.82-1.81,5-3.11,6.51-3.9a2.48,2.48,0,0,0,1.61-1.94,57.46,57.46,0,0,0-6.79,4A5.37,5.37,0,0,0,220.76,30.15Z" fill="#7D674C"></path><path class="f37e0fce-170d-4b84-8dce-14776dc7096e" d="M6.79,24.06a6.94,6.94,0,0,1,1.53.57,3.41,3.41,0,0,0,1.33.6c.19,0,.38-.25.63-.76s.45-.76.58-.76a18.84,18.84,0,0,0,7.17,1c5.33,0,9.65-1.31,13-3.91a3.51,3.51,0,0,0,2.73,1.37c1,0,2.54-.61,4.73-1.78a13,13,0,0,1,6.1-1.78,1.68,1.68,0,0,1,.6.1h.32a4,4,0,0,0,1.11-2,21.65,21.65,0,0,1-5.59-.51,17,17,0,0,1-2.63-1,7.69,7.69,0,0,0-2.6-.77c-1.88,0-2.8.8-2.8,2.38V17l2.35.1a.42.42,0,0,1,.45-.26,14.7,14.7,0,0,1,3.55.92C36.79,19.27,35,20,34.06,20a2.5,2.5,0,0,1-1.87-.77c.06-.28.09-.5.15-.69-.09-.16-.19-.26-.25-.26-1.24,1.3-3.4,2.35-6.51,3.15a30.28,30.28,0,0,1-7.3.92,19.41,19.41,0,0,1-5.74-.83A15.55,15.55,0,0,1,9.33,20,8.36,8.36,0,0,1,8,19.14C6.67,19.14,6,20.54,6,23.3c-.7,1.58-2.7,3.11-6,4.57v.32a8.72,8.72,0,0,0,4.22-1.27A5.73,5.73,0,0,0,6.79,24.06Zm.92-3.3c.1.09.35.35.73.76s.61.64.7.76a3.59,3.59,0,0,1-.92-.38,3.88,3.88,0,0,0-.92-.38C7.3,21,7.43,20.76,7.71,20.76Z" fill="#7D674C"></path><path class="f37e0fce-170d-4b84-8dce-14776dc7096e" d="M3.55,33.11a53.9,53.9,0,0,1,6.54-3.91,3,3,0,0,0,1.59-2,69.18,69.18,0,0,0-6.76,4.06A4.54,4.54,0,0,0,3.55,33.11Z" fill="#7D674C"></path><path class="f37e0fce-170d-4b84-8dce-14776dc7096e" d="M28.28,26.09a6.61,6.61,0,0,0-.6,1.43c0,.57.73,1.05,2.12,1.43a4.51,4.51,0,0,1,.77-1.27,4,4,0,0,0,1.87.51,4.86,4.86,0,0,0,.6-2l-1.81-.92c-.5.64-.82,1.08-1,1.37A4.11,4.11,0,0,0,28.28,26.09Z" fill="#7D674C"></path><path class="f37e0fce-170d-4b84-8dce-14776dc7096e" d="M64.69,21.27a5.2,5.2,0,0,0,2.79,1.08c1,0,1.52-1.53,1.52-4.58a10.91,10.91,0,0,1,4.92-1,15.58,15.58,0,0,1,2.89.44c.83-.5,1.56-1,2.1-1.36a50.87,50.87,0,0,1-7.27-3.14,8,8,0,0,0-3.46-1.27c-2,0-3.05.85-3.05,2.54v.44h2.7c.06-.22.16-.35.35-.35a13,13,0,0,1,3.62,1.11,11.56,11.56,0,0,0-6.1,2.29s-.41.76-1.27,2.28A2.66,2.66,0,0,1,62,21.33a4.21,4.21,0,0,1-1.78-1.08,6.84,6.84,0,0,0-.7,1.84,2.6,2.6,0,0,0,.58,1.08,3,3,0,0,1,.54,1.56c0,1.87-2.39,3.61-7.21,5.23A49,49,0,0,1,36.76,32.6c-9.65,0-17.46-2.26-23.37-6.76l-.09.31q6.66,9.1,23,9.08a53.3,53.3,0,0,0,10.66-1.17,34.83,34.83,0,0,0,9.91-3.4c3.2-1.81,4.82-4.16,4.82-7A2.92,2.92,0,0,0,63.55,23,3.31,3.31,0,0,0,64.69,21.27Zm2-2.73c.66,0,1,.41,1,1.2V20a1.87,1.87,0,0,1-1-.45c-.38-.28-.57-.54-.57-.76S66.31,18.54,66.66,18.54Z" fill="#7D674C"></path><path class="f37e0fce-170d-4b84-8dce-14776dc7096e" d="M87.64,28.38c.16.82,0,1.27-.51,1.27s-.6-.29-.6-.86c0-.06.31-1.14,1-3.3l-.19-.1A23.46,23.46,0,0,1,86,27.61a4.14,4.14,0,0,0-.67,2.19c0,1.08.51,1.62,1.52,1.62s1.37-.63,1.37-1.87a2.26,2.26,0,0,0-.51-1.43Z" fill="#7D674C"></path><path class="f37e0fce-170d-4b84-8dce-14776dc7096e" d="M4.22,15.08c.76,0,1.11-.32,1.11-.92.51,0,1,.35,1.46,1.08a3.76,3.76,0,0,1,.67,1.87h.16V14.16c.06-1.59.32-2.38.76-2.38s.54.31.44.92H9a3.29,3.29,0,0,0,.61-1.59c0-.76-.35-1.11-1-1.11s-1.17.6-1.27,1.87v3a2.87,2.87,0,0,0-2.82-2.28c-.89,0-1.34.38-1.34,1.17S3.49,15.08,4.22,15.08Z" fill="#7D674C"></path><path class="f37e0fce-170d-4b84-8dce-14776dc7096e" d="M72.75,25.08c0,.57.35.82,1.08.82a3.67,3.67,0,0,0,1.9-.57c.67-.41,1-.73,1.15-1a6.33,6.33,0,0,1-2.54.77c-.45,0-.67-.2-.67-.61a5.73,5.73,0,0,1,1-1.52,3.42,3.42,0,0,0,.66-.92,1.89,1.89,0,0,0-1.08-.45,1.62,1.62,0,0,0-1.62,1.11,5.16,5.16,0,0,1,1-.09,1.26,1.26,0,0,1,.76.25l-.76.7A2.25,2.25,0,0,0,72.75,25.08Z" fill="#7D674C"></path><path class="f37e0fce-170d-4b84-8dce-14776dc7096e" d="M82.05,8.22a2.74,2.74,0,0,1,.22-.86,2.94,2.94,0,0,0,.19-.82,32.83,32.83,0,0,0-2.09-2.83,5.43,5.43,0,0,0-.7,2.07,11.19,11.19,0,0,0,1,2.69,36.19,36.19,0,0,1,1,4.23A64.31,64.31,0,0,1,83,19.3a1.49,1.49,0,0,1-1.59.95,2.74,2.74,0,0,1-1.62-.51,9.33,9.33,0,0,0-.6,2l.76.77a2.17,2.17,0,0,1,.77,1.52c0,.89-.64,2-2,3.3a8.32,8.32,0,0,1-3.43,2.29,13.48,13.48,0,0,1-3.56.5l-.09.26a16.67,16.67,0,0,0,4.47,1c1.66,0,3-1,4-2.79a10.21,10.21,0,0,0,1.34-5.08,11.53,11.53,0,0,1,1.24-2,6.62,6.62,0,0,0,1.23-3.87,33.81,33.81,0,0,0-1-5.33C82.37,9.55,82.05,8.16,82.05,8.22Z" fill="#7D674C"></path><path class="f37e0fce-170d-4b84-8dce-14776dc7096e" d="M62.75,31.33c2.83-1.81,5-3.11,6.51-3.91a2.68,2.68,0,0,0,1.62-2,66,66,0,0,0-6.76,4.07A4.36,4.36,0,0,0,62.75,31.33Z" fill="#7D674C"></path></svg>